<svg width="1200" height="700" viewBox="0 0 1200 700" xmlns="http://www.w3.org/2000/svg">
  <rect width="1200" height="700" fill="#0f172a"/>
  <text x="600" y="70" fill="#f1f5f9" font-size="34" text-anchor="middle" font-family="Inter, Arial, sans-serif">Organizacion de Suites en Jest</text>

  <rect x="420" y="120" width="360" height="80" rx="10" fill="#1e293b" stroke="#F7DF1E" stroke-width="3"/>
  <text x="600" y="170" fill="#F7DF1E" font-size="26" text-anchor="middle" font-family="Inter, Arial, sans-serif">describe('UserService')</text>

  <rect x="130" y="280" width="300" height="100" rx="10" fill="#1e293b" stroke="#6366f1"/>
  <text x="280" y="335" fill="#f1f5f9" font-size="22" text-anchor="middle" font-family="Inter, Arial, sans-serif">describe('createUser')</text>

  <rect x="450" y="280" width="300" height="100" rx="10" fill="#1e293b" stroke="#6366f1"/>
  <text x="600" y="335" fill="#f1f5f9" font-size="22" text-anchor="middle" font-family="Inter, Arial, sans-serif">describe('updateUser')</text>

  <rect x="770" y="280" width="300" height="100" rx="10" fill="#1e293b" stroke="#6366f1"/>
  <text x="920" y="335" fill="#f1f5f9" font-size="22" text-anchor="middle" font-family="Inter, Arial, sans-serif">describe('deleteUser')</text>

  <rect x="130" y="470" width="300" height="110" rx="10" fill="#1e293b" stroke="#22c55e"/>
  <text x="280" y="520" fill="#22c55e" font-size="18" text-anchor="middle" font-family="Inter, Arial, sans-serif">it('should create...')</text>
  <text x="280" y="548" fill="#94a3b8" font-size="15" text-anchor="middle" font-family="Inter, Arial, sans-serif">AAA + assertion clara</text>

  <rect x="450" y="470" width="300" height="110" rx="10" fill="#1e293b" stroke="#22c55e"/>
  <text x="600" y="520" fill="#22c55e" font-size="18" text-anchor="middle" font-family="Inter, Arial, sans-serif">it('should update...')</text>
  <text x="600" y="548" fill="#94a3b8" font-size="15" text-anchor="middle" font-family="Inter, Arial, sans-serif">caso valido + invalido</text>

  <rect x="770" y="470" width="300" height="110" rx="10" fill="#1e293b" stroke="#22c55e"/>
  <text x="920" y="520" fill="#22c55e" font-size="18" text-anchor="middle" font-family="Inter, Arial, sans-serif">it('should throw...')</text>
  <text x="920" y="548" fill="#94a3b8" font-size="15" text-anchor="middle" font-family="Inter, Arial, sans-serif">toThrow + mensaje</text>
</svg>
